<svg width="103" height="89" viewBox="0 0 103 89" fill="none" xmlns="http://www.w3.org/2000/svg">
<path d="M4.05689 88.4751C3.8601 88.6689 3.54353 88.6664 3.34981 88.4696L0.192889 85.2628C-0.00083574 85.066 0.00164791 84.7494 0.198436 84.5557C0.395224 84.3619 0.711797 84.3644 0.905521 84.5612L3.71167 87.4117L6.5622 84.6056C6.75899 84.4119 7.07556 84.4144 7.26929 84.6111C7.46301 84.8079 7.46053 85.1245 7.26374 85.3182L4.05689 88.4751ZM102.185 1.23063C55.9188 1.59494 4.63193 33.8465 4.20611 88.1228L3.20614 88.1149C3.63779 33.0955 55.5856 0.597529 102.177 0.230661L102.185 1.23063Z" fill="#676767"/>
</svg>
